<mxfile host="app.diagrams.net" modified="2023-10-24T17:39:42.124Z" agent="Mozilla/5.0 (Windows NT 10.0; Win64; x64; rv:109.0) Gecko/20100101 Firefox/118.0" etag="fRRx-sWA6ChWw0xvNY-I" version="22.0.6" type="github">
  <diagram name="Page-1" id="e7e014a7-5840-1c2e-5031-d8a46d1fe8dd">
    <mxGraphModel dx="1909" dy="1790" grid="1" gridSize="10" guides="1" tooltips="1" connect="1" arrows="1" fold="1" page="1" pageScale="1" pageWidth="1169" pageHeight="826" background="none" math="0" shadow="0">
      <root>
        <mxCell id="0" />
        <mxCell id="1" parent="0" />
        <mxCell id="2" value="Website - End User Interaction" style="swimlane;whiteSpace=wrap;movable=1;resizable=1;rotatable=1;deletable=1;editable=1;locked=0;connectable=1;" parent="1" vertex="1">
          <mxGeometry x="290" y="-480" width="957" height="1050" as="geometry" />
        </mxCell>
        <mxCell id="wyG0Mp5H0PBrzHiHYPUD-58" style="edgeStyle=orthogonalEdgeStyle;rounded=0;orthogonalLoop=1;jettySize=auto;html=1;exitX=0.5;exitY=1;exitDx=0;exitDy=0;entryX=0.5;entryY=0;entryDx=0;entryDy=0;" parent="2" source="wyG0Mp5H0PBrzHiHYPUD-42" target="wyG0Mp5H0PBrzHiHYPUD-43" edge="1">
          <mxGeometry relative="1" as="geometry" />
        </mxCell>
        <mxCell id="wyG0Mp5H0PBrzHiHYPUD-63" style="edgeStyle=orthogonalEdgeStyle;rounded=0;orthogonalLoop=1;jettySize=auto;html=1;exitX=1;exitY=0.5;exitDx=0;exitDy=0;entryX=0;entryY=0.5;entryDx=0;entryDy=0;" parent="2" source="wyG0Mp5H0PBrzHiHYPUD-42" target="wyG0Mp5H0PBrzHiHYPUD-62" edge="1">
          <mxGeometry relative="1" as="geometry" />
        </mxCell>
        <mxCell id="wyG0Mp5H0PBrzHiHYPUD-42" value="Login / Sign up" style="ellipse;whiteSpace=wrap;html=1;fillColor=#d80073;fontColor=#ffffff;strokeColor=#A50040;movable=1;resizable=1;rotatable=1;deletable=1;editable=1;locked=0;connectable=1;" parent="2" vertex="1">
          <mxGeometry x="60" y="500" width="170" height="80" as="geometry" />
        </mxCell>
        <mxCell id="wyG0Mp5H0PBrzHiHYPUD-48" style="edgeStyle=orthogonalEdgeStyle;rounded=0;orthogonalLoop=1;jettySize=auto;html=1;exitX=0.5;exitY=0;exitDx=0;exitDy=0;entryX=0.5;entryY=1;entryDx=0;entryDy=0;" parent="2" source="wyG0Mp5H0PBrzHiHYPUD-43" target="wyG0Mp5H0PBrzHiHYPUD-42" edge="1">
          <mxGeometry relative="1" as="geometry" />
        </mxCell>
        <mxCell id="wyG0Mp5H0PBrzHiHYPUD-57" value="" style="edgeStyle=orthogonalEdgeStyle;rounded=0;orthogonalLoop=1;jettySize=auto;html=1;" parent="2" source="wyG0Mp5H0PBrzHiHYPUD-43" target="wyG0Mp5H0PBrzHiHYPUD-42" edge="1">
          <mxGeometry relative="1" as="geometry">
            <Array as="points">
              <mxPoint x="145" y="620" />
              <mxPoint x="145" y="620" />
            </Array>
          </mxGeometry>
        </mxCell>
        <mxCell id="wyG0Mp5H0PBrzHiHYPUD-75" style="edgeStyle=orthogonalEdgeStyle;rounded=0;orthogonalLoop=1;jettySize=auto;html=1;exitX=0.5;exitY=1;exitDx=0;exitDy=0;" parent="2" source="wyG0Mp5H0PBrzHiHYPUD-43" target="wyG0Mp5H0PBrzHiHYPUD-72" edge="1">
          <mxGeometry relative="1" as="geometry" />
        </mxCell>
        <mxCell id="wyG0Mp5H0PBrzHiHYPUD-43" value="Homepage" style="ellipse;whiteSpace=wrap;html=1;fillColor=#d80073;fontColor=#ffffff;strokeColor=#A50040;movable=1;resizable=1;rotatable=1;deletable=1;editable=1;locked=0;connectable=1;" parent="2" vertex="1">
          <mxGeometry x="60" y="620" width="170" height="80" as="geometry" />
        </mxCell>
        <mxCell id="m8XRUMfYv6m4-PTh2tOv-3" style="edgeStyle=orthogonalEdgeStyle;rounded=0;orthogonalLoop=1;jettySize=auto;html=1;exitX=0.5;exitY=0;exitDx=0;exitDy=0;entryX=0.5;entryY=1;entryDx=0;entryDy=0;" edge="1" parent="2" source="wyG0Mp5H0PBrzHiHYPUD-60" target="wyG0Mp5H0PBrzHiHYPUD-62">
          <mxGeometry relative="1" as="geometry" />
        </mxCell>
        <mxCell id="wyG0Mp5H0PBrzHiHYPUD-60" value="Create Post" style="ellipse;whiteSpace=wrap;html=1;fillColor=#d80073;fontColor=#ffffff;strokeColor=#A50040;movable=1;resizable=1;rotatable=1;deletable=1;editable=1;locked=0;connectable=1;" parent="2" vertex="1">
          <mxGeometry x="320" y="639" width="170" height="80" as="geometry" />
        </mxCell>
        <mxCell id="wyG0Mp5H0PBrzHiHYPUD-64" style="edgeStyle=orthogonalEdgeStyle;rounded=0;orthogonalLoop=1;jettySize=auto;html=1;exitX=0.5;exitY=1;exitDx=0;exitDy=0;entryX=0.5;entryY=0;entryDx=0;entryDy=0;" parent="2" source="wyG0Mp5H0PBrzHiHYPUD-62" target="wyG0Mp5H0PBrzHiHYPUD-60" edge="1">
          <mxGeometry relative="1" as="geometry" />
        </mxCell>
        <mxCell id="wyG0Mp5H0PBrzHiHYPUD-66" style="edgeStyle=orthogonalEdgeStyle;rounded=0;orthogonalLoop=1;jettySize=auto;html=1;exitX=1;exitY=0.5;exitDx=0;exitDy=0;entryX=0;entryY=0.5;entryDx=0;entryDy=0;" parent="2" source="wyG0Mp5H0PBrzHiHYPUD-62" target="wyG0Mp5H0PBrzHiHYPUD-65" edge="1">
          <mxGeometry relative="1" as="geometry" />
        </mxCell>
        <mxCell id="wyG0Mp5H0PBrzHiHYPUD-74" style="edgeStyle=orthogonalEdgeStyle;rounded=0;orthogonalLoop=1;jettySize=auto;html=1;exitX=1;exitY=0.5;exitDx=0;exitDy=0;entryX=0;entryY=0.5;entryDx=0;entryDy=0;" parent="2" source="wyG0Mp5H0PBrzHiHYPUD-62" target="wyG0Mp5H0PBrzHiHYPUD-69" edge="1">
          <mxGeometry relative="1" as="geometry" />
        </mxCell>
        <mxCell id="m8XRUMfYv6m4-PTh2tOv-7" style="edgeStyle=orthogonalEdgeStyle;rounded=0;orthogonalLoop=1;jettySize=auto;html=1;exitX=0.5;exitY=0;exitDx=0;exitDy=0;entryX=1;entryY=0.5;entryDx=0;entryDy=0;" edge="1" parent="2" source="wyG0Mp5H0PBrzHiHYPUD-62" target="m8XRUMfYv6m4-PTh2tOv-2">
          <mxGeometry relative="1" as="geometry" />
        </mxCell>
        <mxCell id="m8XRUMfYv6m4-PTh2tOv-9" style="edgeStyle=orthogonalEdgeStyle;rounded=0;orthogonalLoop=1;jettySize=auto;html=1;exitX=0.5;exitY=0;exitDx=0;exitDy=0;entryX=0;entryY=0.5;entryDx=0;entryDy=0;" edge="1" parent="2" source="wyG0Mp5H0PBrzHiHYPUD-62" target="m8XRUMfYv6m4-PTh2tOv-8">
          <mxGeometry relative="1" as="geometry" />
        </mxCell>
        <mxCell id="m8XRUMfYv6m4-PTh2tOv-12" style="edgeStyle=orthogonalEdgeStyle;rounded=0;orthogonalLoop=1;jettySize=auto;html=1;exitX=0.5;exitY=0;exitDx=0;exitDy=0;entryX=1;entryY=0.5;entryDx=0;entryDy=0;" edge="1" parent="2" source="wyG0Mp5H0PBrzHiHYPUD-62" target="m8XRUMfYv6m4-PTh2tOv-11">
          <mxGeometry relative="1" as="geometry" />
        </mxCell>
        <mxCell id="m8XRUMfYv6m4-PTh2tOv-20" style="edgeStyle=orthogonalEdgeStyle;rounded=0;orthogonalLoop=1;jettySize=auto;html=1;exitX=0.5;exitY=0;exitDx=0;exitDy=0;entryX=0;entryY=0.5;entryDx=0;entryDy=0;" edge="1" parent="2" source="wyG0Mp5H0PBrzHiHYPUD-62" target="m8XRUMfYv6m4-PTh2tOv-13">
          <mxGeometry relative="1" as="geometry" />
        </mxCell>
        <mxCell id="wyG0Mp5H0PBrzHiHYPUD-62" value="Feed" style="ellipse;whiteSpace=wrap;html=1;fillColor=#d80073;strokeColor=#FFCCE6;movable=1;resizable=1;rotatable=1;deletable=1;editable=1;locked=0;connectable=1;fontColor=#ffffff;" parent="2" vertex="1">
          <mxGeometry x="320" y="500" width="170" height="80" as="geometry" />
        </mxCell>
        <mxCell id="wyG0Mp5H0PBrzHiHYPUD-65" value="Comment post" style="ellipse;whiteSpace=wrap;html=1;fillColor=#d80073;fontColor=#ffffff;strokeColor=#A50040;movable=1;resizable=1;rotatable=1;deletable=1;editable=1;locked=0;connectable=1;" parent="2" vertex="1">
          <mxGeometry x="680" y="620" width="170" height="80" as="geometry" />
        </mxCell>
        <mxCell id="wyG0Mp5H0PBrzHiHYPUD-69" value="Browse Section" style="ellipse;whiteSpace=wrap;html=1;fillColor=#d80073;fontColor=#ffffff;strokeColor=#A50040;movable=1;resizable=1;rotatable=1;deletable=1;editable=1;locked=0;connectable=1;" parent="2" vertex="1">
          <mxGeometry x="680" y="500" width="170" height="80" as="geometry" />
        </mxCell>
        <mxCell id="wyG0Mp5H0PBrzHiHYPUD-71" style="edgeStyle=orthogonalEdgeStyle;rounded=0;orthogonalLoop=1;jettySize=auto;html=1;exitX=0.5;exitY=1;exitDx=0;exitDy=0;" parent="2" source="wyG0Mp5H0PBrzHiHYPUD-43" target="wyG0Mp5H0PBrzHiHYPUD-43" edge="1">
          <mxGeometry relative="1" as="geometry" />
        </mxCell>
        <mxCell id="cQX6xUzbK8IMXvxnRTmu-14" style="edgeStyle=orthogonalEdgeStyle;rounded=0;orthogonalLoop=1;jettySize=auto;html=1;exitX=0.5;exitY=0;exitDx=0;exitDy=0;" parent="2" source="wyG0Mp5H0PBrzHiHYPUD-72" edge="1">
          <mxGeometry relative="1" as="geometry">
            <mxPoint x="144.66666666666674" y="700" as="targetPoint" />
          </mxGeometry>
        </mxCell>
        <mxCell id="wyG0Mp5H0PBrzHiHYPUD-72" value="FAQ" style="ellipse;whiteSpace=wrap;html=1;fillColor=#d80073;fontColor=#ffffff;strokeColor=#A50040;movable=1;resizable=1;rotatable=1;deletable=1;editable=1;locked=0;connectable=1;" parent="2" vertex="1">
          <mxGeometry x="60" y="769" width="170" height="80" as="geometry" />
        </mxCell>
        <mxCell id="cQX6xUzbK8IMXvxnRTmu-16" style="edgeStyle=orthogonalEdgeStyle;rounded=0;orthogonalLoop=1;jettySize=auto;html=1;exitX=0;exitY=0;exitDx=0;exitDy=0;entryX=1;entryY=0.5;entryDx=0;entryDy=0;" parent="2" source="wyG0Mp5H0PBrzHiHYPUD-76" target="wyG0Mp5H0PBrzHiHYPUD-43" edge="1">
          <mxGeometry relative="1" as="geometry">
            <Array as="points">
              <mxPoint x="350" y="780" />
              <mxPoint x="350" y="720" />
              <mxPoint x="230" y="720" />
            </Array>
          </mxGeometry>
        </mxCell>
        <mxCell id="cQX6xUzbK8IMXvxnRTmu-20" style="edgeStyle=orthogonalEdgeStyle;rounded=0;orthogonalLoop=1;jettySize=auto;html=1;exitX=1;exitY=0.5;exitDx=0;exitDy=0;entryX=0;entryY=0.5;entryDx=0;entryDy=0;" parent="2" source="wyG0Mp5H0PBrzHiHYPUD-76" target="cQX6xUzbK8IMXvxnRTmu-17" edge="1">
          <mxGeometry relative="1" as="geometry" />
        </mxCell>
        <mxCell id="wyG0Mp5H0PBrzHiHYPUD-76" value="Request Help" style="ellipse;whiteSpace=wrap;html=1;fillColor=#d80073;fontColor=#ffffff;strokeColor=#A50040;movable=1;resizable=1;rotatable=1;deletable=1;editable=1;locked=0;connectable=1;" parent="2" vertex="1">
          <mxGeometry x="330" y="770" width="170" height="80" as="geometry" />
        </mxCell>
        <mxCell id="cQX6xUzbK8IMXvxnRTmu-12" style="edgeStyle=orthogonalEdgeStyle;rounded=0;orthogonalLoop=1;jettySize=auto;html=1;exitX=1;exitY=0.5;exitDx=0;exitDy=0;entryX=0.086;entryY=0.192;entryDx=0;entryDy=0;entryPerimeter=0;" parent="2" source="wyG0Mp5H0PBrzHiHYPUD-43" target="wyG0Mp5H0PBrzHiHYPUD-76" edge="1">
          <mxGeometry relative="1" as="geometry">
            <Array as="points">
              <mxPoint x="230" y="720" />
              <mxPoint x="350" y="720" />
              <mxPoint x="350" y="784" />
            </Array>
          </mxGeometry>
        </mxCell>
        <mxCell id="cQX6xUzbK8IMXvxnRTmu-17" value="Interact with users in need" style="ellipse;whiteSpace=wrap;html=1;fillColor=#dae8fc;strokeColor=#6c8ebf;movable=1;resizable=1;rotatable=1;deletable=1;editable=1;locked=0;connectable=1;" parent="2" vertex="1">
          <mxGeometry x="675" y="769" width="180" height="80" as="geometry" />
        </mxCell>
        <mxCell id="cQX6xUzbK8IMXvxnRTmu-21" value="Administer sections" style="ellipse;whiteSpace=wrap;html=1;fillColor=#dae8fc;strokeColor=#6c8ebf;movable=1;resizable=1;rotatable=1;deletable=1;editable=1;locked=0;connectable=1;" parent="2" vertex="1">
          <mxGeometry x="675" y="960" width="180" height="80" as="geometry" />
        </mxCell>
        <mxCell id="m8XRUMfYv6m4-PTh2tOv-6" style="edgeStyle=orthogonalEdgeStyle;rounded=0;orthogonalLoop=1;jettySize=auto;html=1;exitX=1;exitY=0.5;exitDx=0;exitDy=0;" edge="1" parent="2" source="m8XRUMfYv6m4-PTh2tOv-2" target="wyG0Mp5H0PBrzHiHYPUD-62">
          <mxGeometry relative="1" as="geometry" />
        </mxCell>
        <mxCell id="m8XRUMfYv6m4-PTh2tOv-2" value="Read Post" style="ellipse;whiteSpace=wrap;html=1;fillColor=#d80073;fontColor=#ffffff;strokeColor=#A50040;movable=1;resizable=1;rotatable=1;deletable=1;editable=1;locked=0;connectable=1;" vertex="1" parent="2">
          <mxGeometry x="60" y="340" width="170" height="80" as="geometry" />
        </mxCell>
        <mxCell id="m8XRUMfYv6m4-PTh2tOv-8" value="Check Notifications" style="ellipse;whiteSpace=wrap;html=1;fillColor=#d80073;fontColor=#ffffff;strokeColor=#A50040;movable=1;resizable=1;rotatable=1;deletable=1;editable=1;locked=0;connectable=1;" vertex="1" parent="2">
          <mxGeometry x="580" y="340" width="170" height="80" as="geometry" />
        </mxCell>
        <mxCell id="m8XRUMfYv6m4-PTh2tOv-16" style="edgeStyle=orthogonalEdgeStyle;rounded=0;orthogonalLoop=1;jettySize=auto;html=1;exitX=0.5;exitY=0;exitDx=0;exitDy=0;entryX=0.5;entryY=1;entryDx=0;entryDy=0;" edge="1" parent="2" source="m8XRUMfYv6m4-PTh2tOv-11" target="m8XRUMfYv6m4-PTh2tOv-15">
          <mxGeometry relative="1" as="geometry" />
        </mxCell>
        <mxCell id="m8XRUMfYv6m4-PTh2tOv-11" value="Administer friendlist" style="ellipse;whiteSpace=wrap;html=1;fillColor=#d80073;fontColor=#ffffff;strokeColor=#A50040;movable=1;resizable=1;rotatable=1;deletable=1;editable=1;locked=0;connectable=1;" vertex="1" parent="2">
          <mxGeometry x="60" y="200" width="170" height="80" as="geometry" />
        </mxCell>
        <mxCell id="m8XRUMfYv6m4-PTh2tOv-13" value="Open calendar/schedule" style="ellipse;whiteSpace=wrap;html=1;fillColor=#d80073;fontColor=#ffffff;strokeColor=#A50040;movable=1;resizable=1;rotatable=1;deletable=1;editable=1;locked=0;connectable=1;" vertex="1" parent="2">
          <mxGeometry x="580" y="200" width="170" height="80" as="geometry" />
        </mxCell>
        <mxCell id="m8XRUMfYv6m4-PTh2tOv-18" style="edgeStyle=orthogonalEdgeStyle;rounded=0;orthogonalLoop=1;jettySize=auto;html=1;exitX=0.5;exitY=1;exitDx=0;exitDy=0;entryX=0.5;entryY=0;entryDx=0;entryDy=0;" edge="1" parent="2" source="m8XRUMfYv6m4-PTh2tOv-15" target="m8XRUMfYv6m4-PTh2tOv-11">
          <mxGeometry relative="1" as="geometry" />
        </mxCell>
        <mxCell id="m8XRUMfYv6m4-PTh2tOv-15" value="&lt;div&gt;Send Friendrequest&lt;/div&gt;" style="ellipse;whiteSpace=wrap;html=1;fillColor=#d80073;fontColor=#ffffff;strokeColor=#A50040;movable=1;resizable=1;rotatable=1;deletable=1;editable=1;locked=0;connectable=1;" vertex="1" parent="2">
          <mxGeometry x="60" y="40" width="170" height="80" as="geometry" />
        </mxCell>
        <mxCell id="wyG0Mp5H0PBrzHiHYPUD-55" style="edgeStyle=orthogonalEdgeStyle;rounded=0;orthogonalLoop=1;jettySize=auto;html=1;exitX=0.5;exitY=0.5;exitDx=0;exitDy=0;exitPerimeter=0;entryX=0;entryY=0.5;entryDx=0;entryDy=0;" parent="1" source="wyG0Mp5H0PBrzHiHYPUD-41" target="wyG0Mp5H0PBrzHiHYPUD-43" edge="1">
          <mxGeometry relative="1" as="geometry" />
        </mxCell>
        <mxCell id="wyG0Mp5H0PBrzHiHYPUD-41" value="User 1" style="shape=umlActor;verticalLabelPosition=bottom;verticalAlign=top;html=1;outlineConnect=0;" parent="1" vertex="1">
          <mxGeometry x="200" y="150" width="50" height="60" as="geometry" />
        </mxCell>
        <mxCell id="cQX6xUzbK8IMXvxnRTmu-19" style="edgeStyle=orthogonalEdgeStyle;rounded=0;orthogonalLoop=1;jettySize=auto;html=1;exitX=0.5;exitY=0.5;exitDx=0;exitDy=0;exitPerimeter=0;entryX=1;entryY=0.5;entryDx=0;entryDy=0;" parent="1" source="cQX6xUzbK8IMXvxnRTmu-18" target="cQX6xUzbK8IMXvxnRTmu-17" edge="1">
          <mxGeometry relative="1" as="geometry" />
        </mxCell>
        <mxCell id="cQX6xUzbK8IMXvxnRTmu-22" style="edgeStyle=orthogonalEdgeStyle;rounded=0;orthogonalLoop=1;jettySize=auto;html=1;exitX=0.5;exitY=0.5;exitDx=0;exitDy=0;exitPerimeter=0;entryX=1;entryY=0.5;entryDx=0;entryDy=0;" parent="1" source="cQX6xUzbK8IMXvxnRTmu-18" target="cQX6xUzbK8IMXvxnRTmu-21" edge="1">
          <mxGeometry relative="1" as="geometry" />
        </mxCell>
        <mxCell id="cQX6xUzbK8IMXvxnRTmu-18" value="Administratior" style="shape=umlActor;verticalLabelPosition=bottom;verticalAlign=top;html=1;outlineConnect=0;" parent="1" vertex="1">
          <mxGeometry x="1300" y="469" width="50" height="60" as="geometry" />
        </mxCell>
      </root>
    </mxGraphModel>
  </diagram>
</mxfile>
